<!DOCTYPE svg PUBLIC "-//W3C//DTD SVG 1.1//EN" "http://www.w3.org/Graphics/SVG/1.1/DTD/svg11.dtd">
<!-- Uploaded to: SVG Repo, www.svgrepo.com, Transformed by: SVG Repo Mixer Tools -->
<svg fill="#fff" width="800px" height="800px" viewBox="-2.8 -2.8 33.60 33.60" xmlns="http://www.w3.org/2000/svg" stroke="#fff" transform="rotate(0)" stroke-width="0.00028">
<g id="SVGRepo_bgCarrier" stroke-width="0"/>
<g id="SVGRepo_tracerCarrier" stroke-linecap="round" stroke-linejoin="round" stroke="#CCCCCC" stroke-width="0.05600000000000001"/>
<g id="SVGRepo_iconCarrier">
<path d="m2.61 0h22.431c1.441 0 2.61 1.168 2.61 2.61s-1.168 2.61-2.61 2.61h-22.431c-1.441 0-2.61-1.168-2.61-2.61s1.168-2.61 2.61-2.61z"/>
<path d="m2.61 9.39h22.431c1.441 0 2.61 1.168 2.61 2.61s-1.168 2.61-2.61 2.61h-22.431c-1.441 0-2.61-1.168-2.61-2.61s1.168-2.61 2.61-2.61z"/>
<path d="m2.61 18.781h22.431c1.441 0 2.61 1.168 2.61 2.61s-1.168 2.61-2.61 2.61h-22.431c-1.441 0-2.61-1.168-2.61-2.61s1.168-2.61 2.61-2.61z"/>
</g>
</svg>